<svg width="14" height="9" viewBox="0 0 14 9" fill="none" xmlns="http://www.w3.org/2000/svg">
<line x1="1.5" y1="5.5" x2="13.5" y2="5.5" stroke="white" stroke-linecap="round"/>
<line x1="2.13867" y1="5.69338" x2="0.693374" y2="7.86132" stroke="white" stroke-linecap="round"/>
<line x1="6.13867" y1="5.69338" x2="4.69337" y2="7.86132" stroke="white" stroke-linecap="round"/>
<line x1="13.1387" y1="5.69338" x2="11.6934" y2="7.86132" stroke="white" stroke-linecap="round"/>
<line x1="10.1387" y1="5.69338" x2="8.69337" y2="7.86132" stroke="white" stroke-linecap="round"/>
<line x1="3.6" y1="5.7" x2="6.6" y2="1.7" stroke="white"/>
<line y1="-0.5" x2="5" y2="-0.5" transform="matrix(-0.6 -0.8 -0.8 0.6 11 6)" stroke="white"/>
<path d="M7.5 0.5C8.05228 0.5 8.5 0.947715 8.5 1.5C8.5 2.05228 8.05228 2.5 7.5 2.5C6.94771 2.5 6.5 2.05228 6.5 1.5C6.5 0.947715 6.94771 0.5 7.5 0.5Z" fill="white" stroke="white"/>
</svg>
